<svg width="45" height="47" viewBox="0 0 45 47" fill="none" xmlns="http://www.w3.org/2000/svg">
<path d="M41.3551 7.56403H33.2325V9.03278H41.3551C42.3704 9.03278 43.2295 9.84059 43.2295 10.7953V34.589H1.83548V10.7953C1.83548 9.84059 2.6946 9.03278 3.70992 9.03278H4.25664V7.56403H3.70992C1.83548 7.56403 0.273438 9.03278 0.273438 10.7953V37.9672C0.273438 39.7297 1.83548 41.1984 3.70992 41.1984H41.4332C43.3076 41.1984 44.8697 39.7297 44.8697 37.9672V10.7953C44.7916 9.03278 43.3076 7.56403 41.3551 7.56403Z" fill="#9B5C7E"/>
<path d="M31.9844 45.5313H30.1881L29.2509 42.6672H15.7392L14.8801 45.5313H13.0838C12.6151 45.5313 12.3027 45.825 12.3027 46.2656C12.3027 46.7063 12.6151 47 13.0838 47H32.0625C32.5312 47 32.8436 46.7063 32.8436 46.2656C32.7655 45.825 32.4531 45.5313 31.9844 45.5313Z" fill="#9B5C7E"/>
<path d="M29.4064 15.2016L29.094 16.1563C28.7034 16.3031 28.391 16.3766 28.0786 16.5969L27.1414 16.0828C26.829 15.9359 26.4385 15.9359 26.2042 16.2297L24.7983 17.625C24.564 17.8453 24.4859 18.2125 24.6421 18.5063L25.1889 19.3875C25.0327 19.6813 24.8764 20.0485 24.7202 20.3422L23.7049 20.5625C23.3925 20.636 23.1582 20.9297 23.1582 21.2969V23.2063C23.1582 23.5 23.3925 23.7938 23.7049 23.9407L24.7202 24.2344C24.8764 24.6016 24.9546 24.8953 25.1889 25.1891L24.6421 26.0704C24.4859 26.3641 24.4859 26.7313 24.7983 26.9516L26.2823 28.3469C26.5166 28.5672 26.9071 28.6407 27.2195 28.4938L28.1567 27.9797C28.4691 28.1266 28.8597 28.2735 29.1721 28.3469L29.4845 29.3016C29.5626 29.5954 29.875 29.8157 30.2655 29.8157H32.2961C32.6867 29.8157 32.921 29.5954 33.0772 29.3016L33.3896 28.3469C33.7801 28.2735 34.0925 28.1266 34.4049 27.9797L35.3421 28.4938C35.6545 28.6407 36.045 28.5672 36.2793 28.3469L37.6852 26.9516C37.9195 26.7313 37.9976 26.3641 37.8414 26.0704L37.2947 25.1891C37.4509 24.8953 37.6071 24.5282 37.6852 24.2344L38.7005 23.9407C39.0129 23.8672 39.2472 23.5735 39.2472 23.2063V21.2969C39.2472 20.9297 39.0129 20.7094 38.7005 20.5625L37.6852 20.2688C37.6071 19.9016 37.4509 19.6078 37.2947 19.3141L37.8414 18.4328C37.9976 18.1391 37.9195 17.7719 37.6852 17.5516L36.2793 16.2297C36.045 16.0094 35.6545 15.9359 35.3421 16.0828L34.4049 16.5969C34.0925 16.45 33.702 16.3031 33.3896 16.1563L33.0772 15.2016C32.9991 14.9078 32.6867 14.6875 32.2961 14.6875H30.2655C29.7969 14.6875 29.4845 14.9078 29.4064 15.2016ZM33.5458 22.6922C33.3896 23.5735 32.6085 24.2344 31.7494 24.3813C30.1874 24.675 28.9378 23.5 28.9378 22.2516C28.9378 21.0031 30.0312 20.0485 31.2808 20.0485C32.6086 20.0485 33.7801 21.2235 33.5458 22.6922Z" fill="#9B5C7E"/>
<path d="M31.6701 2.1297C31.6701 0.954692 30.6548 0 29.4052 0H8.08332C6.83369 0 5.81836 0.954692 5.81836 2.1297V5.36096H31.6701V2.1297ZM10.1921 3.52502C9.87966 3.81877 9.41105 3.81877 9.09864 3.52502C8.78624 3.23126 8.78624 2.79064 9.09864 2.49689C9.41105 2.20314 9.87966 2.20314 10.1921 2.49689C10.5045 2.7172 10.5045 3.23126 10.1921 3.52502ZM13.5505 3.52502C13.238 3.81877 12.7694 3.81877 12.457 3.52502C12.1446 3.23126 12.1446 2.79064 12.457 2.49689C12.7694 2.20314 13.238 2.20314 13.5505 2.49689C13.7848 2.7172 13.8629 3.23126 13.5505 3.52502ZM16.8307 3.52502C16.5183 3.81877 16.0497 3.81877 15.7373 3.52502C15.4249 3.23126 15.4249 2.79064 15.7373 2.49689C16.0497 2.20314 16.5183 2.20314 16.8307 2.49689C17.1431 2.79064 17.1431 3.23126 16.8307 3.52502Z" fill="#9B5C7E"/>
<path d="M8.08331 30.4766H28.3117C28.0774 30.2563 27.9212 29.9625 27.8431 29.6688C27.4526 29.8891 27.0621 29.9625 26.6716 29.9625C26.0468 29.9625 25.5 29.7422 25.0314 29.375L23.5475 27.9797C22.7665 27.3188 22.6103 26.2172 23.157 25.3359C22.1417 25.0422 21.4387 24.2344 21.4387 23.2063V21.2969C21.4387 20.3422 22.1417 19.4609 23.157 19.1672C22.6884 18.2859 22.7665 17.2578 23.5475 16.5235L25.0314 15.1281C25.4219 14.6875 26.0468 14.4672 26.6716 14.4672C27.0621 14.4672 27.4526 14.5406 27.8431 14.761C28.0774 13.8063 29.0146 13.1453 30.1081 13.1453H31.592V6.82971H5.81836V28.2734C5.81836 29.5219 6.83368 30.4766 8.08331 30.4766ZM11.1293 9.69377H26.3592C26.8278 9.69377 27.1402 10.061 27.1402 10.4281C27.1402 10.8688 26.8278 11.1625 26.3592 11.1625H11.1293C10.7388 11.1625 10.3483 10.8688 10.3483 10.4281C10.3483 9.98752 10.7388 9.69377 11.1293 9.69377ZM11.1293 14.6875H17.6899C18.0804 14.6875 18.4709 14.9813 18.4709 15.4219C18.4709 15.7891 18.0804 16.1563 17.6899 16.1563H11.1293C10.7388 16.1563 10.3483 15.7891 10.3483 15.4219C10.3483 15.0547 10.7388 14.6875 11.1293 14.6875ZM11.1293 19.7547H17.6899C18.0804 19.7547 18.4709 20.1219 18.4709 20.4891C18.4709 20.8563 18.0804 21.2234 17.6899 21.2234H11.1293C10.7388 21.2234 10.3483 20.8563 10.3483 20.4891C10.3483 20.1219 10.7388 19.7547 11.1293 19.7547ZM11.1293 24.7484H17.6899C18.0804 24.7484 18.4709 25.0422 18.4709 25.4828C18.4709 25.9234 18.0804 26.2172 17.6899 26.2172H11.1293C10.7388 26.2172 10.3483 25.9234 10.3483 25.4828C10.3483 25.0422 10.7388 24.7484 11.1293 24.7484Z" fill="#9B5C7E"/>
</svg>
