<svg width="37" height="45" viewBox="0 0 37 45" fill="none" xmlns="http://www.w3.org/2000/svg">
<path d="M30.6836 44.293V22.707L19.2051 33.5L30.6836 44.293Z" fill="#90D19A"/>
<path d="M26.4313 12H10.4785V15H26.4313V12Z" fill="#90D19A"/>
<path d="M6.97656 45H29.9334L18.4549 34.207L6.97656 45Z" fill="#90D19A"/>
<path d="M6.22266 44.293L17.701 33.5L6.22266 22.707V44.293Z" fill="#90D19A"/>
<path d="M29.9334 22H6.97656L18.4549 32.793L29.9334 22Z" fill="#90D19A"/>
<path d="M18.4542 0C8.77828 0 0.90625 7.4019 0.90625 16.5V45H5.16031V21.5001C5.16031 21.4672 5.16393 21.4343 5.17084 21.402C5.17392 21.3876 5.17967 21.3744 5.18392 21.3605C5.18934 21.3431 5.1936 21.3255 5.20104 21.3086C5.20817 21.2925 5.21795 21.2779 5.22667 21.2628C5.23444 21.2494 5.24071 21.2355 5.24986 21.2226C5.26826 21.1967 5.28942 21.1727 5.3125 21.1505C5.31378 21.1493 5.31463 21.1478 5.31601 21.1465C5.31729 21.1453 5.31888 21.1445 5.32016 21.1433C5.34377 21.1215 5.3694 21.1016 5.39705 21.0842C5.41024 21.0759 5.42438 21.0703 5.4381 21.0633C5.4548 21.0547 5.47096 21.0452 5.48862 21.0383C5.50574 21.0317 5.52361 21.0279 5.54126 21.0229C5.55689 21.0186 5.57189 21.0129 5.58795 21.0099C5.6206 21.0038 5.65367 21.0008 5.68675 21.0005C5.68856 21.0005 5.69015 21 5.69196 21H31.2163C31.2181 21 31.2197 21.0005 31.2215 21.0005C31.2548 21.0008 31.2878 21.0038 31.3205 21.0099C31.3365 21.0129 31.3514 21.0185 31.3671 21.0229C31.3848 21.0278 31.4028 21.0316 31.4199 21.0383C31.4377 21.0452 31.4539 21.0548 31.4707 21.0634C31.4843 21.0704 31.4986 21.076 31.5117 21.0842C31.5699 21.1208 31.62 21.1679 31.659 21.2228C31.6676 21.2349 31.6735 21.2481 31.6809 21.2607C31.6902 21.2766 31.7004 21.2919 31.7078 21.3088C31.7149 21.3252 31.719 21.3423 31.7245 21.3593C31.7289 21.3736 31.7349 21.3873 31.738 21.4021C31.7447 21.4344 31.7485 21.4672 31.7485 21.5V45H36.0026V16.5C36.0022 7.4019 28.1302 0 18.4542 0ZM27.4941 15.5C27.4941 15.7761 27.2561 16 26.9624 16H9.94613C9.65249 16 9.41437 15.7761 9.41437 15.5V11.5C9.41437 11.2239 9.65249 11 9.94613 11H26.9624C27.2561 11 27.4941 11.2239 27.4941 11.5V15.5Z" fill="#90D19A"/>
</svg>
