<svg width="17" height="20" viewBox="0 0 17 20" fill="none" xmlns="http://www.w3.org/2000/svg">
<path d="M8.5834 19.4718C13.0395 19.4718 16.6649 15.8465 16.6649 11.3904C16.6649 7.14365 13.3715 3.65398 9.20505 3.33516V2.06558H11.07V0.822266H6.09681V2.06558H7.96176V3.33516C3.79532 3.65398 0.501953 7.14362 0.501953 11.3904C0.501953 15.8464 4.1273 19.4718 8.5834 19.4718ZM9.20505 4.58171C9.99989 4.65371 10.7554 4.86238 11.4489 5.18383L9.20505 9.07032V4.58171ZM7.96176 4.58171V11.3903C7.96176 11.6717 8.1507 11.918 8.42252 11.9908C8.47594 12.0052 8.52999 12.012 8.5834 12.012C8.80148 12.012 9.00872 11.8969 9.12176 11.7012L12.5245 5.80736C14.2753 7.04694 15.4216 9.08668 15.4216 11.3903C15.4216 15.1609 12.354 18.2285 8.5834 18.2285C4.81284 18.2285 1.74524 15.1609 1.74524 11.3903C1.74524 7.82944 4.48157 4.89701 7.96176 4.58171Z" fill="#ABABAB"/>
</svg>
