<svg width="55" height="63" viewBox="0 0 55 63" fill="none" xmlns="http://www.w3.org/2000/svg">
<path d="M0.443017 62.9373H8.75421V50.8266H10.9134V39.3798C8.18068 40.555 5.51763 41.886 2.93734 43.3662C-1.01039 46.6726 0.443017 62.9373 0.443017 62.9373Z" fill="#4D4E50"/>
<path d="M51.9345 43.3663C49.0267 41.6986 46.0124 40.2237 42.9111 38.9513V50.8267H45.0574V62.931H54.4192C54.4192 62.931 55.8726 46.6727 51.9345 43.3663Z" fill="#4D4E50"/>
<path d="M12.2208 52.8344C12.0505 52.8344 11.884 52.8849 11.7424 52.9796C11.6009 53.0743 11.4906 53.2089 11.4255 53.3663C11.3605 53.5237 11.3437 53.6969 11.3771 53.8639C11.4106 54.0309 11.4929 54.1842 11.6135 54.3044C11.7342 54.4246 11.8878 54.5063 12.0549 54.5391C12.222 54.5719 12.3951 54.5544 12.5523 54.4888C12.7095 54.4232 12.8436 54.3124 12.9378 54.1705C13.032 54.0286 13.0819 53.8619 13.0812 53.6916C13.0812 53.5787 13.059 53.467 13.0157 53.3628C12.9724 53.2586 12.909 53.1639 12.829 53.0843C12.7491 53.0046 12.6542 52.9416 12.5498 52.8987C12.4455 52.8558 12.3336 52.8339 12.2208 52.8344Z" fill="#4D4E50"/>
<path d="M41.5802 52.8344C41.4099 52.8344 41.2434 52.8849 41.1018 52.9796C40.9602 53.0743 40.8499 53.2089 40.7849 53.3663C40.7199 53.5237 40.703 53.6969 40.7365 53.8639C40.77 54.0309 40.8522 54.1842 40.9729 54.3044C41.0935 54.4246 41.2472 54.5063 41.4143 54.5391C41.5814 54.5719 41.7545 54.5544 41.9117 54.4888C42.0688 54.4232 42.203 54.3124 42.2972 54.1705C42.3913 54.0286 42.4412 53.8619 42.4406 53.6916C42.4406 53.5787 42.4183 53.467 42.3751 53.3628C42.3318 53.2586 42.2683 53.1639 42.1884 53.0843C42.1085 53.0046 42.0136 52.9416 41.9092 52.8987C41.8048 52.8558 41.693 52.8339 41.5802 52.8344Z" fill="#4D4E50"/>
<path d="M38.1676 59.2346H15.6768V62.9406H38.1676V59.2346Z" fill="#4D4E50"/>
<path d="M40.4358 18.3488C40.4358 17.83 40.4165 17.3208 40.3842 16.8116C35.9106 17.2623 31.4163 17.4775 26.92 17.4562C22.4238 17.4776 17.9295 17.2624 13.4559 16.8116C13.4236 17.3208 13.4043 17.83 13.4043 18.3488C13.4043 24.2592 15.4829 29.5088 18.7088 32.8507L17.6034 36.8081L17.5454 36.7791C16.6269 37.1916 15.354 37.6686 13.5396 38.3453V50.8266H15.6891V52.8279H38.1123V50.8266H40.2618V37.9651H40.2972C38.7729 37.3946 37.6933 36.9789 36.9135 36.5987L36.8136 36.6599L35.6051 32.3319C38.557 28.9836 40.4358 23.9627 40.4358 18.3488ZM36.646 36.7598L27.4582 42.3768L17.8709 36.9693C18.3989 35.7897 18.8384 34.5725 19.1857 33.3277C21.3771 35.3966 24.0422 36.6148 26.92 36.6148C30.0138 36.6148 32.8626 35.2097 35.141 32.8475C35.529 34.1925 36.0325 35.5015 36.646 36.7598Z" fill="#4D4E50"/>
<path d="M49.6107 12.0872C49.6107 10.9368 45.6597 9.92162 39.6495 9.31899C38.8471 4.46891 33.4556 0.714539 26.9201 0.714539C20.3846 0.714539 14.9963 4.46891 14.1874 9.31899C8.17723 9.92162 4.22949 10.9303 4.22949 12.0872C4.22949 13.9338 14.3873 15.4291 26.9201 15.4291C39.4529 15.4291 49.6107 13.9338 49.6107 12.0872Z" fill="#4D4E50"/>
</svg>
