<svg width="14" height="19" viewBox="0 0 14 19" fill="none" xmlns="http://www.w3.org/2000/svg">
<path d="M6.90063 4.08508C5.10425 4.08508 3.63782 5.55152 3.63782 7.3479C3.63782 9.14428 5.10425 10.6107 6.90063 10.6107C8.69702 10.6107 10.1635 9.14428 10.1635 7.3479C10.1635 5.55152 8.69702 4.08508 6.90063 4.08508ZM6.90063 9.80418C5.54418 9.80418 4.44436 8.70435 4.44436 7.3479C4.44436 5.99145 5.54418 4.89162 6.90063 4.89162C8.25709 4.89162 9.35691 5.99145 9.35691 7.3479C9.35691 8.70435 8.25709 9.80418 6.90063 9.80418ZM6.90063 0.822266C3.28954 0.822266 0.375 3.75514 0.375 7.3479C0.375 12.6637 6.90063 18.7861 6.90063 18.7861C6.90063 18.7861 13.4263 12.6637 13.4263 7.3479C13.4263 3.75514 10.5117 0.822266 6.90063 0.822266ZM6.90063 17.558C6.90063 17.558 1.18154 12.2421 1.18154 7.3479C1.18154 4.19507 3.7478 1.6288 6.90063 1.6288C10.0535 1.6288 12.6197 4.19507 12.6197 7.3479C12.6197 12.2605 6.90063 17.558 6.90063 17.558Z" fill="#ABABAB"/>
</svg>
