<svg width="61" height="59" viewBox="0 0 61 59" fill="none" xmlns="http://www.w3.org/2000/svg">
<rect width="61" height="59" rx="15" fill="#007785"/>
<path d="M44.0203 29.3343C43.4953 28.8755 42.8434 28.623 42.1869 28.623C41.5186 28.623 40.9258 28.8826 40.5182 29.3538L36.6056 33.8686C36.4658 34.0294 36.2403 34.0872 36.0419 34.012C35.8424 33.9372 35.7108 33.7457 35.7108 33.5321V14.9558C35.7108 13.8772 34.837 13 33.7636 13C32.6893 13 31.8155 13.8772 31.8155 14.9558L31.7859 26.235C31.7854 26.3723 31.7308 26.5029 31.6328 26.5991C31.5349 26.6954 31.3972 26.741 31.2671 26.7456L30.5993 26.7348C30.3208 26.7302 30.0979 26.5024 30.0979 26.2227C30.0979 25.1442 29.224 24.267 28.1507 24.267C27.0764 24.267 26.2025 25.1442 26.2025 26.2227C26.2025 26.5054 25.9745 26.7348 25.6924 26.7348H25.5072C25.2251 26.7348 24.9971 26.5054 24.9971 26.2227C24.9971 25.1442 24.1233 24.267 23.05 24.267C21.9756 24.267 21.1018 25.1442 21.1018 26.2227C21.1018 26.359 21.0482 26.4895 20.9523 26.5853C20.8564 26.6811 20.7268 26.7348 20.5917 26.7348H20.5911L20.4055 26.7343C20.1677 26.7343 19.9616 26.5694 19.9086 26.3369L19.8912 26.2606C19.6469 25.1811 19.3322 24.2859 17.9415 24.2675C16.8596 24.2675 16 25.1442 16 26.2227V40.3668C16 43.0897 17.0488 46 19.9912 46H30.7355C31.7083 46 32.4113 46 33.2974 45.4065C33.83 45.049 34.1299 44.8063 34.6048 44.2271L44.487 32.8213C45.3241 31.8539 45.1145 30.2899 44.0203 29.3343Z" fill="white"/>
</svg>
