<svg width="76" height="67" viewBox="0 0 76 67" fill="none" xmlns="http://www.w3.org/2000/svg">
<rect width="76" height="67" rx="8" fill="#DF374B" fill-opacity="0.15"/>
<path d="M47.1983 11.0088C44.895 11.3177 43.513 12.3476 42.7452 13.3775C41.6704 13.0685 40.5443 12.9141 39.4182 12.9141H35.7841C28.7717 12.9141 23.0902 18.6299 23.0902 25.6846C23.0902 30.113 25.2912 33.9751 28.6694 36.2923V39.5879C28.6694 40.0514 29.0277 40.4118 29.4883 40.4118H34.5556C35.0163 40.4118 35.3746 40.0514 35.3746 39.5879V38.5066C35.5282 38.5066 35.6305 38.5066 35.7841 38.5066H39.367V39.5879C39.367 40.0514 39.7253 40.4118 40.186 40.4118H45.2021C45.6628 40.4118 46.0211 40.0514 46.0211 39.5879V36.6013C48.7851 34.902 50.8325 32.2243 51.6514 29.0317H52.624C53.4429 29.0317 54.1595 28.3622 54.1595 27.4869V23.7278C54.1595 22.9039 53.4941 22.183 52.624 22.183H51.6003C50.8837 19.6083 49.3481 17.3425 47.3007 15.6947C47.096 14.4074 47.5566 13.2745 48.0685 12.3991C48.5292 11.7297 47.9661 10.9058 47.1983 11.0088ZM35.8864 18.8359C32.1499 18.8359 29.0788 21.9255 29.0788 25.6846C29.0788 26.4055 28.5158 27.0234 27.748 27.0234C26.9803 27.0234 26.4172 26.457 26.4172 25.6846C26.4172 20.4322 30.6656 16.2097 35.8353 16.2097C36.5519 16.2097 37.1661 16.7761 37.1661 17.5485C37.1661 18.3209 36.603 18.8359 35.8864 18.8359ZM47.659 21.1531C47.659 21.8225 47.096 22.3889 46.4306 22.3889C45.7652 22.3889 45.2021 21.8225 45.2021 21.1531C45.2021 20.4837 45.7652 19.9172 46.4306 19.9172C47.096 19.9172 47.659 20.4837 47.659 21.1531ZM60.3529 42.8835C59.4316 42.8321 57.4865 43.8619 56.9235 44.1194C55.0296 45.0978 52.4192 46.5911 50.6789 47.7755C50.5765 47.8785 50.423 47.9815 50.2694 48.0329C49.5017 48.5479 48.6827 48.8569 47.7614 49.0628C42.7452 50.1442 35.4258 50.2472 35.4258 50.2472H35.0163C34.7092 50.2472 34.4021 50.0412 34.3509 49.7323C34.2997 49.3718 34.5556 49.0628 34.9139 49.0113L45.7652 47.9815C46.9424 47.827 47.9149 46.7456 47.7614 45.4582C47.6078 44.1709 46.4817 43.244 45.2533 43.3985L35.5793 43.2955C34.9139 43.2955 33.8902 43.141 33.2248 42.935C26.9803 41.0813 23.4997 42.8321 21.6058 43.6045C21.1964 42.8835 20.3774 42.4716 19.5072 42.5231L15.3613 42.7806C13.9793 42.8836 12.9044 44.0164 13.0067 45.4068L13.6722 54.7272C13.7745 56.066 14.9518 57.0959 16.3338 56.9929L20.4798 56.7354C21.3499 56.6839 22.0665 56.1175 22.3736 55.3966L40.6978 56.169C42.7452 56.375 44.6391 56.1175 46.4306 55.1906L46.9424 54.9331L60.7624 46.7971C61.4278 46.3851 61.9396 45.7157 61.9396 44.9433C62.1955 44.0164 61.6325 42.9865 60.3529 42.8835ZM17.9717 54.8816C17.2039 54.8816 16.5385 54.2637 16.5385 53.4913C16.5385 52.7189 17.1527 52.101 17.9717 52.101C18.7395 52.101 19.4049 52.7189 19.4049 53.4913C19.4049 54.2637 18.7395 54.8816 17.9717 54.8816ZM50.0135 46.1277C50.0135 45.8702 50.0135 45.6127 50.0135 45.3553C49.9623 45.0463 49.9111 44.6858 49.8088 44.4284V44.3769C51.242 43.553 54.1083 42.1626 55.6951 41.5447C56.4628 41.2357 57.2306 41.2357 57.9472 41.7507C57.3842 41.9567 56.8723 42.2141 56.3605 42.4716C54.7225 43.2955 51.8562 44.8918 50.423 45.8702C50.3206 45.9217 50.1671 46.0247 50.0135 46.1277ZM49.9111 42.4201L49.1946 42.7806C49.1434 42.8321 49.0922 42.8835 48.9898 42.8835C48.6827 42.5231 48.3244 42.2141 47.9149 41.9567C48.8874 41.4417 51.0372 40.7208 51.9585 40.3603C52.7263 40.0514 53.4941 40.0514 54.2107 40.5148C53.0846 41.0813 50.9348 41.8537 49.9111 42.4201Z" fill="#DF374B"/>
</svg>
