<svg width="76" height="67" viewBox="0 0 76 67" fill="none" xmlns="http://www.w3.org/2000/svg">
<rect width="76" height="67" rx="8" fill="#9651EA" fill-opacity="0.15"/>
<path d="M31.8387 27.7372C31.5375 26.8938 31.4772 25.9298 31.658 25.0863H16.7766C13.2822 25.0863 10.2698 27.7975 9.90828 31.3521L9.00456 39.7869C8.94431 40.6304 9.48654 41.4136 10.33 41.5341C11.2337 41.7149 12.4387 41.8956 13.7039 42.0161L14.4872 55.5118C14.5474 56.6565 15.4511 57.5 16.5959 57.5H23.1629C24.2474 57.5 25.2114 56.5962 25.2716 55.5118L26.4164 32.3764C26.4164 31.2316 27.3803 30.3279 28.5251 30.3279H32.8027L31.8387 27.7372Z" fill="#9651EA"/>
<path d="M19.8496 23.2186C23.7759 23.2186 26.9589 20.0357 26.9589 16.1093C26.9589 12.1829 23.7759 9 19.8496 9C15.9232 9 12.7402 12.1829 12.7402 16.1093C12.7402 20.0357 15.9232 23.2186 19.8496 23.2186Z" fill="#9651EA"/>
<path d="M65.337 31.3522C64.9755 27.7975 61.9631 25.1466 58.4084 25.1466H36.1165C35.3935 25.1466 34.9115 25.8696 35.1525 26.5323L36.3575 29.6652C36.5382 30.087 36.8997 30.328 37.3215 30.328H46.7805C47.9252 30.328 48.8892 31.2317 48.8892 32.3764L50.0339 55.5118C50.0941 56.6565 51.0581 57.5 52.1426 57.5H58.6494C59.7941 57.5 60.6979 56.5963 60.7581 55.5118L61.5414 42.0162C62.8066 41.8957 64.0115 41.7149 64.9153 41.5342C65.7587 41.3534 66.301 40.6305 66.2407 39.787L65.337 31.3522Z" fill="#9651EA"/>
<path d="M55.3964 23.2186C59.3228 23.2186 62.5057 20.0357 62.5057 16.1093C62.5057 12.1829 59.3228 9 55.3964 9C51.4701 9 48.2871 12.1829 48.2871 16.1093C48.2871 20.0357 51.4701 23.2186 55.3964 23.2186Z" fill="#9651EA"/>
<path d="M43.407 37.1963H31.8393C31.3573 37.1963 30.9355 37.618 30.9355 38.1V40.9317C30.9355 41.4137 31.3573 41.8354 31.8393 41.8354H43.4672C43.9492 41.8354 44.3709 41.4137 44.3709 40.9317V38.1C44.3107 37.618 43.9492 37.1963 43.407 37.1963Z" fill="#9651EA"/>
<path d="M43.407 44.7876H31.8393C31.3573 44.7876 30.9355 45.2093 30.9355 45.6913V48.523C30.9355 49.005 31.3573 49.4267 31.8393 49.4267H43.4672C43.9492 49.4267 44.3709 49.005 44.3709 48.523V45.6913C44.3107 45.1491 43.9492 44.7876 43.407 44.7876Z" fill="#9651EA"/>
</svg>
