<svg width="76" height="67" viewBox="0 0 76 67" fill="none" xmlns="http://www.w3.org/2000/svg">
<rect width="76" height="67" rx="8" fill="#FF9212" fill-opacity="0.15"/>
<path d="M50.7817 7C46.1971 7 42.4512 10.746 42.4512 15.2746C42.4512 19.8033 46.1971 23.5493 50.7258 23.5493C55.3104 23.5493 59.0005 19.8033 59.0005 15.2746C59.0005 10.746 55.3663 7 50.7817 7ZM54.0804 16.6165H50.7258C49.999 16.6165 49.4399 16.0574 49.4399 15.3306V11.1373C49.4399 10.4105 49.999 9.8514 50.7258 9.8514C51.4526 9.8514 52.0117 10.4105 52.0117 11.1373V13.9887H54.0245C54.7513 13.9887 55.3104 14.5478 55.3104 15.2746C55.4222 16.0015 54.8072 16.6165 54.0804 16.6165Z" fill="#FF9212"/>
<path d="M49.3273 26.9598H44.2954L40.1021 22.3193C38.8721 20.9774 37.1389 20.1947 35.3498 20.1947H30.5975C28.4729 20.1947 26.5161 21.257 25.286 22.9902L18.521 32.998C17.9059 33.8926 17.7941 35.1226 18.4091 36.0172C18.9682 36.8558 19.8069 37.1913 20.6455 37.1913C21.4842 37.1913 22.3228 36.7999 22.826 36.0731L26.3483 30.9294V57.3747C26.3483 58.7165 27.2429 59.8907 28.5288 60.1143C30.2061 60.3938 31.6038 59.1079 31.6038 57.5424V41.6641C31.6038 41.3845 31.8275 41.1609 32.107 41.1609H33.6166C33.8962 41.1609 34.1198 41.3845 34.1198 41.6641V57.3747C34.1198 58.7165 35.0143 59.8907 36.3003 60.1143C37.9776 60.3938 39.3753 59.1079 39.3753 57.5424V29.308L41.2203 31.3208C41.7235 31.8798 42.4503 32.2153 43.1772 32.2153H49.495C51.1164 32.2153 52.3464 30.8176 52.0668 29.1403C51.8991 27.8543 50.6691 26.9598 49.3273 26.9598Z" fill="#FF9212"/>
<path d="M32.8334 18.7411C36.0756 18.7411 38.7039 16.1127 38.7039 12.8705C38.7039 9.62832 36.0756 7 32.8334 7C29.5912 7 26.9629 9.62832 26.9629 12.8705C26.9629 16.1127 29.5912 18.7411 32.8334 18.7411Z" fill="#FF9212"/>
</svg>
