<svg width="61" height="60" viewBox="0 0 61 60" fill="none" xmlns="http://www.w3.org/2000/svg">
<rect width="61" height="60" rx="15" fill="#176533"/>
<path d="M29.9938 18C33.8689 18 37.3604 19.5736 39.8999 22.1001C42.426 24.6396 44 28.1311 44 31.9933C44 35.8689 42.426 39.3609 39.8999 41.8999C37.3604 44.4264 33.8689 46 29.9938 46C26.1311 46 22.6396 44.4264 20.1001 41.8999C17.574 39.3609 16 35.8689 16 31.9933C16 28.1311 17.574 24.6396 20.1001 22.1001C22.64 19.5736 26.1315 18 29.9938 18ZM29.9938 22.9864C31.3558 22.9864 32.5726 23.5284 33.4589 24.4147C34.3447 25.3009 34.9001 26.5307 34.9001 27.8798C34.9001 29.2289 34.3447 30.459 33.4589 31.3453C32.5726 32.2312 31.3558 32.7736 29.9938 32.7736C28.6442 32.7736 27.4274 32.2312 26.5411 31.3453C25.6553 30.459 25.0999 29.2289 25.0999 27.8798C25.0999 26.5307 25.6553 25.3009 26.5411 24.4147C27.4274 23.5284 28.6442 22.9864 29.9938 22.9864ZM25.51 34.3476H34.4905C35.9192 34.3476 37.2151 34.9299 38.1542 35.8689C39.0404 36.7682 39.6092 37.9849 39.662 39.3211C41.2097 37.2972 42.1353 34.7582 42.1353 31.9933C42.1353 28.6476 40.7732 25.6184 38.5776 23.4224C36.382 21.2268 33.3529 19.8642 29.9938 19.8642C26.6476 19.8642 23.6184 21.2263 21.4224 23.4224C19.2277 25.6184 17.8652 28.6476 17.8652 31.9933C17.8652 34.7582 18.7908 37.2972 20.325 39.3211C20.3778 37.9849 20.9596 36.7682 21.8458 35.8689C22.7854 34.9299 24.0813 34.3476 25.51 34.3476Z" fill="white"/>
</svg>
