<svg width="61" height="59" viewBox="0 0 61 59" fill="none" xmlns="http://www.w3.org/2000/svg">
<rect width="61" height="59" rx="15" fill="#45B64C"/>
<path d="M36.4727 28.6541V28.7479C36.4727 30.4356 37.8439 31.7248 39.5434 31.7248H47.1029V25.9584L39.18 25.9467C37.6916 25.9467 36.4727 27.1539 36.4727 28.6541ZM39.6957 27.5993C40.3521 27.5993 40.9029 28.1267 40.9029 28.8065C40.9029 29.4862 40.3638 30.0136 39.6957 30.0136C39.0394 30.0136 38.4885 29.4862 38.4885 28.8065C38.4885 28.1267 39.0159 27.5993 39.6957 27.5993Z" fill="white"/>
<path d="M16.9694 36.0613C14.2151 36.0613 12 38.2881 12 41.0307C12 43.7732 14.2268 46 16.9694 46C19.7119 46 21.9388 43.7732 21.9388 41.0307C21.9388 38.2881 19.7236 36.0613 16.9694 36.0613ZM20.3682 41.4877H17.4382V44.4178H16.5123V41.4877H13.5822V40.5736H16.5123V37.6435H17.4382V40.5736H20.3682V41.4877Z" fill="white"/>
<path d="M40.1515 15L15.9609 18.6567H40.1515V15Z" fill="white"/>
<path d="M47.1602 19.5944H15.9609V35.3932C16.2657 35.3463 16.5704 35.3229 16.8751 35.3229C20.0279 35.3229 22.5829 37.8779 22.5829 41.0307C22.5829 41.4057 22.5477 41.7808 22.4774 42.1206H47.1485V32.2288H39.0381C37.1511 32.2288 35.6275 30.7051 35.6275 28.8182C35.6275 26.9312 37.1628 25.4076 39.0381 25.4076H47.1602V19.5944Z" fill="white"/>
</svg>
