<svg width="76" height="67" viewBox="0 0 76 67" fill="none" xmlns="http://www.w3.org/2000/svg">
<rect width="76" height="67" rx="8" fill="#002FA3" fill-opacity="0.15"/>
<path d="M60.999 57V49.3335H57.1654C53.3325 49.3335 49.5421 50.4904 45.8977 52.7703C43.2021 54.451 40.4456 55.8436 37.6465 57H60.999Z" fill="#002FA3"/>
<path d="M57.1665 41.6665C55.8733 41.6665 54.5945 41.7659 53.3335 41.9494V22.9525L57.1665 24.8696V20.5829L38 11L18.833 20.5829V24.8696L22.667 22.9525V42.6135C20.2032 42.0167 17.6462 41.6665 15 41.6665V45.5C21.1347 45.5 26.9635 47.4372 31.8302 50.9901C27.5919 52.4029 23.2392 53.159 18.833 53.1665H15V57H18.841C27.5189 56.9833 35.9369 54.4677 43.8661 49.5187C48.1298 46.8518 52.605 45.5 57.1665 45.5H61V41.6665H57.1665ZM36.083 16.75H39.9165V20.5829H36.083V16.75ZM26.5 24.417H32.25V30.167H26.5V24.417ZM39.9165 39.75H26.5V34H39.9165V39.75ZM49.5 42.7895C47.5272 43.3702 45.6067 44.1637 43.75 45.159V34H49.5V42.7895ZM49.5 30.167H36.083V24.417H49.5V30.167Z" fill="#002FA3"/>
</svg>
