<svg width="76" height="67" viewBox="0 0 76 67" fill="none" xmlns="http://www.w3.org/2000/svg">
<rect width="76" height="67" rx="8" fill="#01AAE4" fill-opacity="0.15"/>
<path d="M30.6738 42.8359C31.8868 44.1949 32.9828 45.7029 33.9458 47.3359H41.4538C42.4178 45.7029 43.5128 44.1949 44.7248 42.8359H30.6738Z" fill="#01AAE4"/>
<path d="M45.7442 23.3369C45.5082 21.7489 45.2432 20.2449 44.9522 18.8369H30.4932C30.2022 20.2449 29.9362 21.7489 29.7012 23.3369H45.7442Z" fill="#01AAE4"/>
<path d="M42.8508 11.337C41.3088 7.273 39.5017 5.004 37.7447 5.004C37.7367 5.004 37.7297 5 37.7227 5C37.7157 5 37.7078 5.004 37.6998 5.004C35.9418 5.004 34.1358 7.273 32.5938 11.337H42.8508Z" fill="#01AAE4"/>
<path d="M40.6234 48.8359H34.7754C36.0774 51.3559 37.0764 54.1289 37.6994 57.0839C38.3224 54.1289 39.3204 51.3549 40.6234 48.8359Z" fill="#01AAE4"/>
<path d="M44.6224 17.3369C44.2424 15.6869 43.8254 14.1839 43.3824 12.8369H32.0594C31.6164 14.1839 31.1994 15.6869 30.8184 17.3369H44.6224Z" fill="#01AAE4"/>
<path d="M36.933 63.55C36.608 49.283 27.481 37.681 16 36.668C19.938 41.631 22.307 46.617 24.397 51.057C27.699 58.068 30.131 63.191 36.933 63.55Z" fill="#01AAE4"/>
<path d="M59.3988 36.668C55.2828 37.031 51.4678 38.752 48.2528 41.473C48.2238 41.506 48.1888 41.534 48.1528 41.561C42.4568 46.438 38.6718 54.454 38.4648 63.551C45.2678 63.192 47.6988 58.069 51.0008 51.057C53.0928 46.617 55.4608 41.63 59.3988 36.668Z" fill="#01AAE4"/>
<path d="M46.8364 35.3359C46.7734 33.7889 46.6844 32.2899 46.5724 30.8369H28.8704C28.7604 32.2899 28.6704 33.7889 28.6074 35.3359H46.8364Z" fill="#01AAE4"/>
<path d="M46.1811 41.3359C46.4321 41.0959 46.6881 40.8609 46.9481 40.6329C46.9441 39.3419 46.9251 38.0739 46.8881 36.8359H28.5561C28.5191 38.0879 28.4991 39.3669 28.4961 40.6719C28.7401 40.8869 28.9801 41.1099 29.2181 41.3359H46.1811Z" fill="#01AAE4"/>
<path d="M45.9541 24.8369H29.4881C29.2991 26.2729 29.1331 27.7749 28.9941 29.3369H46.4491C46.3101 27.7749 46.1441 26.2729 45.9541 24.8369Z" fill="#01AAE4"/>
</svg>
