<svg width="76" height="67" viewBox="0 0 76 67" fill="none" xmlns="http://www.w3.org/2000/svg">
<rect width="76" height="67" rx="8" fill="#ECC42E" fill-opacity="0.15"/>
<path d="M52.4475 61.2068H23.7579C23.5201 61.2068 23.2921 61.3012 23.1239 61.4694C22.9558 61.6375 22.8613 61.8656 22.8613 62.1033C22.8613 62.3411 22.9558 62.5692 23.1239 62.7373C23.2921 62.9054 23.5201 62.9999 23.7579 62.9999H52.4475C52.6853 62.9999 52.9134 62.9054 53.0815 62.7373C53.2496 62.5692 53.3441 62.3411 53.3441 62.1033C53.3441 61.8656 53.2496 61.6375 53.0815 61.4694C52.9134 61.3012 52.6853 61.2068 52.4475 61.2068Z" fill="#ECC42E"/>
<path d="M51.8744 29.245L44.7109 27.4519L46.504 34.6154L48.5571 32.5622L51.722 35.736L52.9951 34.4629L49.8213 31.2981L51.8744 29.245Z" fill="#ECC42E"/>
<path d="M34.4002 30.7241H20.2884C20.2241 30.7241 20.1719 30.7763 20.1719 30.8407V36.8834C20.1719 36.9478 20.2241 37 20.2884 37H34.4002C34.4645 37 34.5167 36.9478 34.5167 36.8834V30.8407C34.5167 30.7763 34.4645 30.7241 34.4002 30.7241Z" fill="#ECC42E"/>
<path d="M34.4002 18.1724H20.2884C20.2241 18.1724 20.1719 18.2245 20.1719 18.2889V24.3317C20.1719 24.396 20.2241 24.4482 20.2884 24.4482H34.4002C34.4645 24.4482 34.5167 24.396 34.5167 24.3317V18.2889C34.5167 18.2245 34.4645 18.1724 34.4002 18.1724Z" fill="#ECC42E"/>
<path d="M13 49.5518C13 49.7896 13.0945 50.0176 13.2626 50.1857C13.4307 50.3539 13.6588 50.4483 13.8966 50.4483H62.3103C62.5481 50.4483 62.7762 50.3539 62.9443 50.1857C63.1124 50.0176 63.2069 49.7896 63.2069 49.5518V45.9656H13V49.5518Z" fill="#ECC42E"/>
<path d="M33.4855 52.2415L31.9883 61.207H44.2172L42.72 52.2415H33.4855Z" fill="#ECC42E"/>
<path d="M62.3103 11H13.8966C13.6588 11 13.4307 11.0945 13.2626 11.2626C13.0945 11.4307 13 11.6588 13 11.8966V44.1724H63.2069V11.8966C63.2069 11.6588 63.1124 11.4307 62.9443 11.2626C62.7762 11.0945 62.5481 11 62.3103 11ZM61.4138 42.3793H14.7931V12.7931H61.4138V42.3793Z" fill="#ECC42E"/>
<path d="M59.6204 14.5862H16.5859V40.5862H59.6204V14.5862ZM44.379 16.3793H53.3446C53.5823 16.3793 53.8104 16.4737 53.9785 16.6419C54.1467 16.81 54.2411 17.0381 54.2411 17.2758C54.2411 17.5136 54.1467 17.7417 53.9785 17.9098C53.8104 18.0779 53.5823 18.1724 53.3446 18.1724H44.379C44.1413 18.1724 43.9132 18.0779 43.7451 17.9098C43.5769 17.7417 43.4825 17.5136 43.4825 17.2758C43.4825 17.0381 43.5769 16.81 43.7451 16.6419C43.9132 16.4737 44.1413 16.3793 44.379 16.3793ZM36.3101 36.8924C36.3077 37.3958 36.1067 37.8778 35.7508 38.2338C35.3948 38.5897 34.9128 38.7907 34.4094 38.7931H20.2887C19.7838 38.7931 19.2994 38.5931 18.9415 38.2369C18.5837 37.8807 18.3814 37.3973 18.379 36.8924V30.8407C18.379 30.3342 18.5802 29.8485 18.9384 29.4903C19.2965 29.1322 19.7822 28.931 20.2887 28.931H34.4094C34.9143 28.9334 35.3977 29.1356 35.7539 29.4935C36.1101 29.8514 36.3101 30.3357 36.3101 30.8407V36.8924ZM36.3101 24.3407C36.3077 24.844 36.1067 25.3261 35.7508 25.6821C35.3948 26.038 34.9128 26.239 34.4094 26.2414H20.2887C19.7838 26.2414 19.2994 26.0414 18.9415 25.6852C18.5837 25.329 18.3814 24.8456 18.379 24.3407V18.2889C18.379 17.7825 18.5802 17.2967 18.9384 16.9386C19.2965 16.5805 19.7822 16.3793 20.2887 16.3793H34.4094C34.9143 16.3817 35.3977 16.5839 35.7539 16.9418C36.1101 17.2996 36.3101 17.784 36.3101 18.2889V24.3407ZM51.7218 38.2641L48.548 35.0903L45.5266 38.1117L42.2542 24.9862L55.3797 28.2676L52.3583 31.2979L55.5321 34.4717L51.7218 38.2641ZM56.0342 21.7586H41.6894C41.4516 21.7586 41.2236 21.6641 41.0554 21.496C40.8873 21.3279 40.7928 21.0998 40.7928 20.862C40.7928 20.6243 40.8873 20.3962 41.0554 20.2281C41.2236 20.0599 41.4516 19.9655 41.6894 19.9655H56.0342C56.272 19.9655 56.5 20.0599 56.6682 20.2281C56.8363 20.3962 56.9308 20.6243 56.9308 20.862C56.9308 21.0998 56.8363 21.3279 56.6682 21.496C56.5 21.6641 56.272 21.7586 56.0342 21.7586Z" fill="#ECC42E"/>
</svg>
