<svg width="76" height="67" viewBox="0 0 76 67" fill="none" xmlns="http://www.w3.org/2000/svg">
<rect width="76" height="67" rx="8" fill="#43425D" fill-opacity="0.15"/>
<path d="M51.8309 7.23315C52.0126 6.76074 51.7765 6.24295 51.304 6.06124C50.8317 5.8796 50.3139 6.11577 50.1323 6.58812C50.0595 6.77891 48.2336 11.3663 42.0383 9.57678C37.7871 8.35047 27.8855 6.66083 24.4063 9.28607C23.5251 9.94922 23.0527 10.8667 23.0527 11.9477C23.0527 12.4474 23.4615 12.8561 23.9611 12.8561C24.4608 12.8561 24.8695 12.4474 24.8695 11.9477C24.8695 11.439 25.0603 11.0665 25.4963 10.7395C28.0036 8.85917 36.5698 9.88566 41.5296 11.321C49.3147 13.5647 51.8037 7.29671 51.8309 7.23315Z" fill="#43425D"/>
<path d="M26.4141 14.5093H21.5087C21.0363 14.5093 20.6366 14.8727 20.6094 15.345L18.0023 50.4457C17.9841 50.7 18.0749 50.9453 18.2476 51.1361C18.4202 51.3177 18.6563 51.4176 18.9107 51.4176H29.0122C29.2665 51.4176 29.5026 51.3177 29.6753 51.1361C29.8479 50.9453 29.9387 50.7 29.9114 50.4457L27.3134 15.345C27.2771 14.8727 26.8865 14.5093 26.4141 14.5093Z" fill="#43425D"/>
<path d="M58.9992 50.509V27.7264C58.9992 27.4175 58.8447 27.1268 58.5813 26.9542C58.3178 26.7908 57.9818 26.7726 57.7001 26.9088L48.3164 31.3963V51.4175H58.0908C58.5995 51.4175 58.9992 51.0177 58.9992 50.509ZM56.6391 42.3504C56.6391 42.8525 56.2328 43.2588 55.7306 43.2588H51.5852C51.0831 43.2588 50.6768 42.8525 50.6768 42.3504V38.1331C50.6768 37.631 51.0831 37.2247 51.5852 37.2247H55.7306C56.2328 37.2247 56.6391 37.631 56.6391 38.1331V42.3504Z" fill="#43425D"/>
<path d="M45.2744 26.8726L30.2676 32.4321L31.5302 51.4176H45.5923C46.092 51.4176 46.5008 51.0179 46.5008 50.5092V27.7266C46.5008 27.4268 46.3554 27.1452 46.1101 26.9725C45.8649 26.8091 45.556 26.7636 45.2744 26.8726ZM42.7309 42.3518C42.7309 42.8514 42.3221 43.2602 41.8225 43.2602H34.9459C34.4463 43.2602 34.0375 42.8514 34.0375 42.3518V38.1368C34.0375 37.6281 34.4463 37.2284 34.9459 37.2284H41.8225C42.3221 37.2284 42.7309 37.6281 42.7309 38.1368V42.3518Z" fill="#43425D"/>
</svg>
