<svg width="76" height="67" viewBox="0 0 76 67" fill="none" xmlns="http://www.w3.org/2000/svg">
<rect width="76" height="67" rx="8" fill="#279B37" fill-opacity="0.15"/>
<path d="M17.528 56.4107C19.2486 57.0373 21.8172 57.4946 23.4595 56.4081C24.8811 55.4674 25.4352 53.949 25.234 52.5122C25.0537 51.2253 24.2663 50.0042 22.9508 49.3254C20.7586 48.1935 17.0269 48.9363 15.1716 50.459C12.4159 52.7211 15.0663 55.5137 17.528 56.4107Z" fill="#279B37"/>
<path d="M45.144 56.3156H42.4103L41.1024 50.4304C41.0106 50.4321 40.9204 50.4329 40.8286 50.4346C40.4977 50.4422 40.1633 50.4498 39.8264 50.4506C39.7052 50.4506 39.5822 50.4405 39.4609 50.4388L40.9331 58H46.8284C46.8284 57.0694 46.0746 56.3156 45.144 56.3156Z" fill="#279B37"/>
<path d="M28.3008 58H34.1961C34.1961 57.0694 33.4423 56.3156 32.5117 56.3156H30.1923L31.8135 50.6629L30.0508 49.8906L28.3008 58Z" fill="#279B37"/>
<path d="M59.6662 16.8223C59.5112 17.016 59.2855 17.3773 59.0488 17.8043L61.9872 18.3138C61.9426 18.1403 61.8676 17.9575 61.7421 17.7849C61.3825 17.2872 60.6675 16.9562 59.6662 16.8223Z" fill="#279B37"/>
<path d="M18.133 20.7335C16.0932 21.7323 14.8266 23.7628 14.8266 26.0325C14.8266 27.6486 15.4734 29.1443 16.6179 30.2493C17.1021 29.5225 18.0841 29.3263 18.8101 29.8105L18.896 29.8678L17.9974 31.2161C17.3337 32.2116 17.2824 33.5271 17.9603 34.5133C17.9671 34.5234 17.9746 34.5335 17.9814 34.5436C18.6863 35.5525 19.7255 36.1724 20.7547 36.1387C21.212 36.1345 21.6541 36.0401 22.0693 35.8591C22.2024 35.801 22.3313 35.7344 22.4551 35.6595C23.1414 35.2468 23.9895 35.2207 24.6296 35.7016L24.7643 35.8026C24.2396 36.5008 23.5415 37.0533 22.7439 37.402C22.3835 37.5594 22.0079 37.6681 21.6238 37.7371C21.8369 39.2859 22.6597 40.7143 23.923 41.6617C24.8317 42.343 25.9013 42.9208 27.2875 43.4775C27.616 43.6097 28.5718 43.7369 29.4157 43.8497C31.7907 44.1664 33.3984 44.4325 34.089 45.2039C34.4284 45.5838 34.7223 45.9914 35.0061 46.3855C35.5148 47.0913 35.9948 47.7583 36.6585 48.1533C36.9962 48.3545 37.4139 48.5011 37.9723 48.6148C38.8574 48.7942 39.7973 48.7731 40.7911 48.7504C41.1204 48.7436 41.4497 48.7361 41.7747 48.7361C42.5369 48.7361 43.2098 47.8593 43.8036 47.0871C43.9526 46.8934 44.0958 46.7072 44.2356 46.5388C45.4172 45.1155 46.5188 44.1756 47.5109 43.747C51.8818 41.8537 53.1089 38.4858 53.7514 33.3081C53.9729 31.5244 53.5047 28.0832 53.1636 25.5701C53.0238 24.5427 52.8983 23.6196 52.8309 22.9231C52.7021 21.5942 53.279 20.0083 54.3005 18.8832C55.0745 18.0301 56.0169 17.561 56.9534 17.561H57.2684C57.8183 16.4627 58.2462 15.8539 58.5864 15.5153C58.4129 13.4999 57.0646 12.064 54.8783 11.6497C52.1926 11.1385 48.6411 12.3571 47.3576 15.6172C47.2043 16.0054 47.0864 16.4131 46.9609 16.8451C46.7908 17.4338 46.6148 18.0418 46.3369 18.6347C44.164 23.2769 35.8643 28.7131 30.9746 28.714C30.9535 28.714 30.9333 28.714 30.9123 28.714C28.8759 28.6946 27.0433 27.172 26.7409 25.2476C26.634 24.6201 25.0448 20.3477 23.9609 19.0609C22.1805 16.9478 20.1837 16.7011 17.4196 16.3608L17.1173 16.3238C16.1858 16.2084 15.3108 16.664 14.9815 17.4304C14.8282 17.7867 14.7878 18.1749 14.8628 18.553L15.342 20.7082C15.9307 20.1161 16.6112 19.6041 17.3927 19.2217C18.0168 18.9169 18.6804 18.6996 19.3642 18.5758C20.3033 18.4057 21.1446 19.1965 21.0874 20.149C20.0641 20.0867 19.0425 20.2888 18.133 20.7335ZM55.0139 13.4258C55.6101 13.4258 56.0935 13.9092 56.0935 14.5055C56.0935 15.1018 55.6101 15.5852 55.0139 15.5852C54.4176 15.5852 53.9342 15.1018 53.9342 14.5055C53.935 13.9084 54.4176 13.4258 55.0139 13.4258ZM47.542 29.6825C47.4511 29.8661 47.3786 30.1272 47.3744 30.2695C47.4637 30.2838 47.6507 30.2939 47.9901 30.2308C50.1679 29.8231 51.3731 28.7089 51.3849 28.698L52.5539 29.9107C52.4915 29.9705 51.0042 31.3795 48.3008 31.8865C48.0246 31.9387 47.7686 31.964 47.5328 31.964C46.8472 31.964 46.336 31.7442 46.0092 31.3079C45.3389 30.4118 45.9166 29.1637 46.0396 28.922L46.7899 29.3044L47.542 29.6825ZM40.1813 26.3281L41.6055 27.2275C41.1119 28.0116 40.6925 28.9818 40.6336 29.4374C40.6639 29.4341 40.6984 29.4282 40.738 29.4206C42.2447 29.1385 44.3468 25.9095 45.3178 23.9405L46.8287 24.685C46.5339 25.2829 43.8684 30.5474 41.0488 31.0763C40.8559 31.1125 40.6799 31.1294 40.5207 31.1294C39.8074 31.1294 39.4192 30.8043 39.212 30.4994C38.4616 29.3945 39.4975 27.412 40.1813 26.3281Z" fill="#279B37"/>
<path d="M34.8562 48.8531C34.3905 48.3942 34.0048 47.8813 33.6376 47.3709C33.3673 46.9953 33.1121 46.6407 32.8308 46.3274C32.5756 46.0714 31.4488 45.8533 30.4238 45.6958V48.2165L33.1626 49.4174L34.8562 48.8531Z" fill="#279B37"/>
<path d="M60.5222 11.1662C60.2351 11.3582 59.8536 11.3591 59.5697 11.162C59.2851 10.9649 59.1453 10.618 59.2236 10.2811C59.2758 10.0453 59.3432 9.29573 58.9676 9.02371C58.8269 8.92517 58.058 9.13824 57.4036 9.58039C57.1207 9.77241 56.7484 9.77409 56.4638 9.58376C56.0957 9.34121 55.5702 9.11382 55.2207 9.07003C55.2485 9.31931 55.3512 9.70335 55.4885 10.0756C58.2046 10.7022 59.9597 12.6156 60.2426 15.2121C60.4431 15.2483 60.6351 15.2921 60.8195 15.3418C60.9307 15.2626 60.9636 15.1885 60.9762 15.1531C61.0949 14.8196 60.8659 14.1829 60.6738 13.857C60.4667 13.5066 60.5374 13.0544 60.8456 12.7883C61.324 12.3697 61.8925 11.5722 61.6929 11.3296C61.2566 10.7973 60.7724 10.9978 60.5222 11.1662Z" fill="#279B37"/>
<path d="M56.726 20.11C56.897 19.8389 56.9829 19.5508 57.0023 19.2451H56.9526C56.497 19.2451 55.9975 19.5188 55.5461 20.0157C55.1335 20.4697 54.8336 21.0508 54.6602 21.6268C55.4215 21.3051 56.2906 20.8023 56.726 20.11Z" fill="#279B37"/>
<path d="M15.9648 47.3083C17.2845 46.4358 18.8182 45.9608 20.3998 45.9339L20.3711 44.2495C18.4687 44.2824 16.6243 44.8542 15.0368 45.9027L14.3613 46.3491L15.2903 47.7547L15.9648 47.3083Z" fill="#279B37"/>
</svg>
