<svg width="76" height="67" viewBox="0 0 76 67" fill="none" xmlns="http://www.w3.org/2000/svg">
<rect width="76" height="67" rx="8" fill="#9B5C7E" fill-opacity="0.15"/>
<path d="M61.0003 58.4138H59.4141V60H61.0003V58.4138Z" fill="#9B5C7E"/>
<path d="M16.5862 58.4138H15V60H16.5862V58.4138Z" fill="#9B5C7E"/>
<path d="M25.3105 22.724C25.3105 24.0358 26.3781 25.1033 27.6899 25.1033C29.0017 25.1033 30.0692 24.0358 30.0692 22.724C30.0692 21.4122 29.0017 20.3447 27.6899 20.3447C26.3781 20.3447 25.3105 21.4122 25.3105 22.724ZM28.483 22.724C28.483 23.161 28.1269 23.5171 27.6899 23.5171C27.2529 23.5171 26.8968 23.161 26.8968 22.724C26.8968 22.287 27.2529 21.9309 27.6899 21.9309C28.1269 21.9309 28.483 22.287 28.483 22.724Z" fill="#9B5C7E"/>
<path d="M31.6559 22.7241H33.2421C33.2421 19.6627 30.7518 17.1724 27.6904 17.1724C24.629 17.1724 22.1387 19.6627 22.1387 22.7241H23.7249C23.7249 20.5375 25.5038 18.7586 27.6904 18.7586C29.877 18.7586 31.6559 20.5375 31.6559 22.7241Z" fill="#9B5C7E"/>
<path d="M27.689 15.5862C31.6244 15.5862 34.8269 18.7888 34.8269 22.7241H36.4131C36.4131 17.914 32.4992 14 27.689 14C22.8788 14 18.9648 17.914 18.9648 22.7241H20.5511C20.5511 18.7888 23.7536 15.5862 27.689 15.5862Z" fill="#9B5C7E"/>
<path d="M28.8563 31.0391L35.3803 26.6897H19.4556L16.2832 33.0345H27.7126C27.7697 32.2295 28.1782 31.4919 28.8563 31.0391Z" fill="#9B5C7E"/>
<path d="M56.2405 52.0688H54.6543V59.9999H56.2405H57.8267V58.4137H56.2405V52.0688Z" fill="#9B5C7E"/>
<path d="M45.1388 32.2415C45.5768 32.2415 45.9319 31.8864 45.9319 31.4484C45.9319 31.0104 45.5768 30.6553 45.1388 30.6553C44.7008 30.6553 44.3457 31.0104 44.3457 31.4484C44.3457 31.8864 44.7008 32.2415 45.1388 32.2415Z" fill="#9B5C7E"/>
<path d="M60.5395 32.3586L45.1375 22.0911L29.7354 32.3586C29.4475 32.5513 29.2754 32.8725 29.2754 33.2183V33.5871C29.2754 34.1573 29.7386 34.6205 30.3088 34.6205C30.5134 34.6205 30.7117 34.5602 30.8822 34.4468L45.1375 24.9431L59.3935 34.4468C59.5632 34.5602 59.7615 34.6205 59.9661 34.6205C60.5364 34.6205 60.9995 34.1573 60.9995 33.5871V33.2183C60.9995 32.8725 60.8274 32.5513 60.5395 32.3586Z" fill="#9B5C7E"/>
<path d="M35.6213 55.2415H22.9316V56.8277H35.6213V55.2415Z" fill="#9B5C7E"/>
<path d="M40.3797 53.6552H45.7363L44.4991 48.0869C43.5664 43.8937 39.9165 40.9656 35.6211 40.9656C31.3257 40.9656 27.6758 43.8937 26.7439 48.0869L25.5059 53.6552H35.6211V50.4828H40.3797V53.6552ZM32.4487 49.6897H30.8625V48.1035H32.4487V49.6897ZM34.0349 46.5173H32.4487V44.9311H34.0349V46.5173ZM36.4142 42.5518H38.0004V44.138H36.4142V42.5518ZM39.5866 48.1035H38.0004V46.5173H39.5866V48.1035Z" fill="#9B5C7E"/>
<path d="M35.6213 58.4138H22.9316V60H35.6213V58.4138Z" fill="#9B5C7E"/>
<path d="M19.7581 58.4137H18.1719V59.9999H19.7581H21.3443V52.0688H19.7581V58.4137Z" fill="#9B5C7E"/>
<path d="M30.8618 40.4912V36.141C30.681 36.1798 30.497 36.2068 30.309 36.2068C29.2312 36.2068 28.3056 35.5525 27.9035 34.6206H16.5859V44.1378H26.7274C27.7631 42.5707 29.1891 41.3176 30.8618 40.4912ZM26.1032 42.5516H18.1721V36.2068H26.1032V42.5516Z" fill="#9B5C7E"/>
<path d="M38.7932 52.0688H37.207V59.9999H38.7932V52.0688Z" fill="#9B5C7E"/>
<path d="M24.5164 37.7932H19.7578V40.9656H24.5164V37.7932Z" fill="#9B5C7E"/>
<path d="M32.4492 35.3091V39.8607C33.4549 39.553 34.5184 39.3793 35.6216 39.3793C39.3104 39.3793 42.5883 41.2233 44.5147 44.1379H46.7251V36.2069H54.6561V44.1379H57.8285V35.3091L45.1389 26.8499L32.4492 35.3091ZM47.5182 31.4483C47.5182 32.7601 46.4507 33.8276 45.1389 33.8276C43.8271 33.8276 42.7596 32.7601 42.7596 31.4483C42.7596 30.1365 43.8271 29.069 45.1389 29.069C46.4507 29.069 47.5182 30.1365 47.5182 31.4483Z" fill="#9B5C7E"/>
<path d="M53.0686 58.4138H40.3789V60H53.0686V58.4138Z" fill="#9B5C7E"/>
<path d="M53.0692 37.7932H48.3105V44.138H53.0692V37.7932Z" fill="#9B5C7E"/>
<path d="M53.0686 55.2415H40.3789V56.8277H53.0686V55.2415Z" fill="#9B5C7E"/>
</svg>
