<svg width="26" height="22" viewBox="0 0 26 22" fill="none" xmlns="http://www.w3.org/2000/svg">
<path fill-rule="evenodd" clip-rule="evenodd" d="M12.6245 5.71719L12.6809 6.6255L11.7415 6.51428C8.3224 6.08793 5.33535 4.64205 2.79919 2.21371L1.55927 1.00881L1.2399 1.89858C0.563595 3.88204 0.995683 5.97671 2.40467 7.38551C3.15612 8.16407 2.98705 8.27529 1.69079 7.81186C1.2399 7.66357 0.845391 7.55235 0.807818 7.60795C0.676313 7.73772 1.12719 9.42457 1.48414 10.0919C1.97259 11.0187 2.96825 11.9271 4.05787 12.4646L4.97842 12.891L3.8888 12.9095C2.83675 12.9095 2.79919 12.9281 2.9119 13.3173C3.28764 14.5222 4.77177 15.8013 6.42497 16.3574L7.58974 16.7467L6.57527 17.3398C5.07235 18.1926 3.30642 18.6745 1.54049 18.7115C0.6951 18.7301 0 18.8042 0 18.8598C0 19.0452 2.29195 20.0833 3.62579 20.4911C7.6273 21.696 12.3803 21.1771 15.9497 19.1194C18.4858 17.655 21.022 14.7447 22.2056 11.9271C22.8444 10.4256 23.483 7.68211 23.483 6.36598C23.483 5.51329 23.5395 5.40205 24.5915 4.38252C25.2114 3.78934 25.7938 3.14056 25.9065 2.95519C26.0943 2.60299 26.0756 2.60299 25.1174 2.91811C23.5206 3.47423 23.2952 3.40007 24.0843 2.56592C24.6666 1.97273 25.3617 0.897588 25.3617 0.582461C25.3617 0.526849 25.0799 0.619534 24.7606 0.786367C24.4224 0.971736 23.671 1.24979 23.1074 1.41662L22.0929 1.73175L21.1724 1.12003C20.6652 0.786367 19.9513 0.415628 19.5754 0.304407C18.6174 0.0448896 17.152 0.0819635 16.2879 0.378555C13.9396 1.21272 12.4554 3.36299 12.6245 5.71719Z" fill="#878787"/>
</svg>
